HIERARCHY
ROOT Hips
{
	OFFSET -339.318004 540.752076 89.163828
	CHANNELS 6 Xposition Yposition Zposition Zrotation Yrotation Xrotation 
	JOINT Spine
	{
		OFFSET 0.000028 2.080169 8.814232
		CHANNELS 3 Zrotation Yrotation Xrotation
		JOINT Spine1
		{
			OFFSET -0.000000 0.000083 8.844146
			CHANNELS 3 Zrotation Yrotation Xrotation
			JOINT Spine2
			{
				OFFSET -0.000008 0.000103 11.682259
				CHANNELS 3 Zrotation Yrotation Xrotation
				JOINT Spine3
				{
					OFFSET -0.000009 -0.000007 11.746674
					CHANNELS 3 Zrotation Yrotation Xrotation
					JOINT RightShoulder
					{
						OFFSET -2.625378 0.000078 11.175210
						CHANNELS 3 Zrotation Yrotation Xrotation
						JOINT RightArm
						{
							OFFSET -10.434741 0.000052 -0.000022
							CHANNELS 3 Zrotation Yrotation Xrotation
							JOINT RightForeArm
							{
								OFFSET -29.628440 -0.000007 -0.000025
								CHANNELS 3 Zrotation Yrotation Xrotation
								JOINT RightHand
								{
									OFFSET -22.857623 0.000019 -0.000003
									CHANNELS 3 Zrotation Yrotation Xrotation
									JOINT RightHandThumb1
									{
										OFFSET -3.959582 -2.944203 -2.867296
										CHANNELS 3 Zrotation Yrotation Xrotation
										JOINT RightHandThumb2
										{
											OFFSET -2.369078 -2.369210 -0.000035
											CHANNELS 3 Zrotation Yrotation Xrotation
											JOINT RightHandThumb3
											{
												OFFSET -2.656257 -2.656248 0.000003
												CHANNELS 3 Zrotation Yrotation Xrotation
												JOINT RightHandThumb4
												{
													OFFSET -2.225508 -2.225492 -0.000005
													CHANNELS 3 Zrotation Yrotation Xrotation
													JOINT RightHandThumb4_End
													{
														OFFSET 0.000060 -0.000022 0.000012
														CHANNELS 3 Zrotation Yrotation Xrotation
														End Site
														{
															OFFSET 0.000000 0.000000 0.000000
														}
													}
												}
											}
										}
									}
									JOINT RightHandIndex1
									{
										OFFSET -10.030903 -2.345225 -0.086752
										CHANNELS 3 Zrotation Yrotation Xrotation
										JOINT RightHandIndex2
										{
											OFFSET -4.061078 0.000016 -0.000056
											CHANNELS 3 Zrotation Yrotation Xrotation
											JOINT RightHandIndex3
											{
												OFFSET -3.248894 0.000007 -0.000018
												CHANNELS 3 Zrotation Yrotation Xrotation
												JOINT RightHandIndex4
												{
													OFFSET -2.639708 -0.000003 -0.000010
													CHANNELS 3 Zrotation Yrotation Xrotation
													JOINT RightHandIndex4_End
													{
														OFFSET 0.000029 -0.000087 0.000029
														CHANNELS 3 Zrotation Yrotation Xrotation
														End Site
														{
															OFFSET 0.000000 0.000000 0.000000
														}
													}
												}
											}
										}
									}
									JOINT RightHandMiddle1
									{
										OFFSET -9.502965 -0.006752 0.104092
										CHANNELS 3 Zrotation Yrotation Xrotation
										JOINT RightHandMiddle2
										{
											OFFSET -4.568708 0.000059 -0.000021
											CHANNELS 3 Zrotation Yrotation Xrotation
											JOINT RightHandMiddle3
											{
												OFFSET -3.655015 0.000054 0.000004
												CHANNELS 3 Zrotation Yrotation Xrotation
												JOINT RightHandMiddle4
												{
													OFFSET -2.741191 0.000005 -0.000023
													CHANNELS 3 Zrotation Yrotation Xrotation
													JOINT RightHandMiddle4_End
													{
														OFFSET -0.000003 0.000006 -0.000005
														CHANNELS 3 Zrotation Yrotation Xrotation
														End Site
														{
															OFFSET 0.000000 0.000000 0.000000
														}
													}
												}
											}
										}
									}
									JOINT RightHandRing1
									{
										OFFSET -8.921717 2.267427 0.086736
										CHANNELS 3 Zrotation Yrotation Xrotation
										JOINT RightHandRing2
										{
											OFFSET -4.061068 0.000037 -0.000024
											CHANNELS 3 Zrotation Yrotation Xrotation
											JOINT RightHandRing3
											{
												OFFSET -3.655008 0.000033 0.000003
												CHANNELS 3 Zrotation Yrotation Xrotation
												JOINT RightHandRing4
												{
													OFFSET -2.741244 -0.000028 -0.000042
													CHANNELS 3 Zrotation Yrotation Xrotation
													JOINT RightHandRing4_End
													{
														OFFSET 0.000054 0.000021 0.000009
														CHANNELS 3 Zrotation Yrotation Xrotation
														End Site
														{
															OFFSET 0.000000 0.000000 0.000000
														}
													}
												}
											}
										}
									}
									JOINT RightHandPinky1
									{
										OFFSET -7.977003 4.467187 -0.173519
										CHANNELS 3 Zrotation Yrotation Xrotation
										JOINT RightHandPinky2
										{
											OFFSET -3.350428 -0.000012 -0.000005
											CHANNELS 3 Zrotation Yrotation Xrotation
											JOINT RightHandPinky3
											{
												OFFSET -2.842748 -0.000086 -0.000017
												CHANNELS 3 Zrotation Yrotation Xrotation
												JOINT RightHandPinky4
												{
													OFFSET -2.639738 -0.000032 -0.000030
													CHANNELS 3 Zrotation Yrotation Xrotation
													JOINT RightHandPinky4_End
													{
														OFFSET -0.000018 -0.000008 -0.000024
														CHANNELS 3 Zrotation Yrotation Xrotation
														End Site
														{
															OFFSET 0.000000 0.000000 0.000000
														}
													}
												}
											}
										}
									}
									JOINT RightForeArmEnd
									{
										OFFSET -0.000008 -0.000018 -0.000006
										CHANNELS 3 Zrotation Yrotation Xrotation
										JOINT RightForeArmEnd_End
										{
											OFFSET -0.000006 -0.000016 0.000009
											CHANNELS 3 Zrotation Yrotation Xrotation
											End Site
											{
												OFFSET 0.000000 0.000000 0.000000
											}
										}
									}
								}
								JOINT RightArmEnd
								{
									OFFSET -0.000003 0.000014 -0.000025
									CHANNELS 3 Zrotation Yrotation Xrotation
									JOINT RightArmEnd_End
									{
										OFFSET 0.000021 -0.000056 -0.000005
										CHANNELS 3 Zrotation Yrotation Xrotation
										End Site
										{
											OFFSET 0.000000 0.000000 0.000000
										}
									}
								}
							}
						}
					}
					JOINT LeftShoulder
					{
						OFFSET 2.625378 0.000059 11.175219
						CHANNELS 3 Zrotation Yrotation Xrotation
						JOINT LeftArm
						{
							OFFSET 10.813689 -0.000011 0.000012
							CHANNELS 3 Zrotation Yrotation Xrotation
							JOINT LeftForeArm
							{
								OFFSET 28.724766 -0.000002 -0.000015
								CHANNELS 3 Zrotation Yrotation Xrotation
								JOINT LeftHand
								{
									OFFSET 25.716182 0.328874 -0.644358
									CHANNELS 3 Zrotation Yrotation Xrotation
									JOINT LeftHandThumb1
									{
										OFFSET 3.959578 -2.944303 -2.867329
										CHANNELS 3 Zrotation Yrotation Xrotation
										JOINT LeftHandThumb2
										{
											OFFSET 2.369130 -2.369069 -0.000018
											CHANNELS 3 Zrotation Yrotation Xrotation
											JOINT LeftHandThumb3
											{
												OFFSET 2.656265 -2.656223 -0.000005
												CHANNELS 3 Zrotation Yrotation Xrotation
												JOINT LeftHandThumb4
												{
													OFFSET 2.192024 -2.192070 0.000003
													CHANNELS 3 Zrotation Yrotation Xrotation
													JOINT LeftHandThumb4_End
													{
														OFFSET -0.000054 -0.000062 -0.000002
														CHANNELS 3 Zrotation Yrotation Xrotation
														End Site
														{
															OFFSET 0.000000 0.000000 0.000000
														}
													}
												}
											}
										}
									}
									JOINT LeftHandIndex1
									{
										OFFSET 10.030935 -2.345288 -0.086744
										CHANNELS 3 Zrotation Yrotation Xrotation
										JOINT LeftHandIndex2
										{
											OFFSET 4.061078 0.000003 0.000034
											CHANNELS 3 Zrotation Yrotation Xrotation
											JOINT LeftHandIndex3
											{
												OFFSET 3.248841 0.000026 0.000015
												CHANNELS 3 Zrotation Yrotation Xrotation
												JOINT LeftHandIndex4
												{
													OFFSET 2.639701 0.000026 0.000009
													CHANNELS 3 Zrotation Yrotation Xrotation
													JOINT LeftHandIndex4_End
													{
														OFFSET 0.000005 -0.000004 0.000005
														CHANNELS 3 Zrotation Yrotation Xrotation
														End Site
														{
															OFFSET 0.000000 0.000000 0.000000
														}
													}
												}
											}
										}
									}
									JOINT LeftHandMiddle1
									{
										OFFSET 9.502937 -0.006765 0.104127
										CHANNELS 3 Zrotation Yrotation Xrotation
										JOINT LeftHandMiddle2
										{
											OFFSET 4.568699 0.000060 -0.000030
											CHANNELS 3 Zrotation Yrotation Xrotation
											JOINT LeftHandMiddle3
											{
												OFFSET 3.654985 0.000013 -0.000019
												CHANNELS 3 Zrotation Yrotation Xrotation
												JOINT LeftHandMiddle4
												{
													OFFSET 2.741163 0.000037 -0.000011
													CHANNELS 3 Zrotation Yrotation Xrotation
													JOINT LeftHandMiddle4_End
													{
														OFFSET 0.000034 -0.000045 -0.000012
														CHANNELS 3 Zrotation Yrotation Xrotation
														End Site
														{
															OFFSET 0.000000 0.000000 0.000000
														}
													}
												}
											}
										}
									}
									JOINT LeftHandRing1
									{
										OFFSET 8.921709 2.267460 0.086779
										CHANNELS 3 Zrotation Yrotation Xrotation
										JOINT LeftHandRing2
										{
											OFFSET 4.061117 0.000014 0.000022
											CHANNELS 3 Zrotation Yrotation Xrotation
											JOINT LeftHandRing3
											{
												OFFSET 3.655033 0.000021 0.000019
												CHANNELS 3 Zrotation Yrotation Xrotation
												JOINT LeftHandRing4
												{
													OFFSET 2.741263 0.000020 0.000018
													CHANNELS 3 Zrotation Yrotation Xrotation
													JOINT LeftHandRing4_End
													{
														OFFSET 0.000004 0.000042 0.000028
														CHANNELS 3 Zrotation Yrotation Xrotation
														End Site
														{
															OFFSET 0.000000 0.000000 0.000000
														}
													}
												}
											}
										}
									}
									JOINT LeftHandPinky1
									{
										OFFSET 7.977014 4.467168 -0.173525
										CHANNELS 3 Zrotation Yrotation Xrotation
										JOINT LeftHandPinky2
										{
											OFFSET 3.350427 -0.000063 0.000015
											CHANNELS 3 Zrotation Yrotation Xrotation
											JOINT LeftHandPinky3
											{
												OFFSET 2.842772 0.000008 -0.000007
												CHANNELS 3 Zrotation Yrotation Xrotation
												JOINT LeftHandPinky4
												{
													OFFSET 2.639658 0.000010 0.000002
													CHANNELS 3 Zrotation Yrotation Xrotation
													JOINT LeftHandPinky4_End
													{
														OFFSET -0.000052 -0.000037 -0.000018
														CHANNELS 3 Zrotation Yrotation Xrotation
														End Site
														{
															OFFSET 0.000000 0.000000 0.000000
														}
													}
												}
											}
										}
									}
									JOINT LeftForeArmEnd
									{
										OFFSET -0.000003 -0.000016 -0.000010
										CHANNELS 3 Zrotation Yrotation Xrotation
										JOINT LeftForeArmEnd_End
										{
											OFFSET -0.000007 0.000015 -0.000035
											CHANNELS 3 Zrotation Yrotation Xrotation
											End Site
											{
												OFFSET 0.000000 0.000000 0.000000
											}
										}
									}
								}
								JOINT LeftArmEnd
								{
									OFFSET 0.000018 -0.000005 0.000013
									CHANNELS 3 Zrotation Yrotation Xrotation
									JOINT LeftArmEnd_End
									{
										OFFSET -0.000034 -0.000011 0.000008
										CHANNELS 3 Zrotation Yrotation Xrotation
										End Site
										{
											OFFSET 0.000000 0.000000 0.000000
										}
									}
								}
							}
						}
					}
					JOINT Neck
					{
						OFFSET -0.000017 0.000067 17.658280
						CHANNELS 3 Zrotation Yrotation Xrotation
						JOINT Neck1
						{
							OFFSET -0.000008 0.000060 5.101493
							CHANNELS 3 Zrotation Yrotation Xrotation
							JOINT Head
							{
								OFFSET 0.000003 0.088979 5.100747
								CHANNELS 3 Zrotation Yrotation Xrotation
								JOINT HeadEnd
								{
									OFFSET 0.000040 0.406782 11.647979
									CHANNELS 3 Zrotation Yrotation Xrotation
									JOINT HeadEnd_End
									{
										OFFSET 0.000007 -0.000010 -0.000014
										CHANNELS 3 Zrotation Yrotation Xrotation
										End Site
										{
											OFFSET 0.000000 0.000000 0.000000
										}
									}
								}
							}
						}
					}
				}
			}
		}
	}
	JOINT RightUpLeg
	{
		OFFSET -11.289969 0.000101 -0.000022
		CHANNELS 3 Zrotation Yrotation Xrotation
		JOINT RightLeg
		{
			OFFSET -0.000010 0.000060 -38.200305
			CHANNELS 3 Zrotation Yrotation Xrotation
			JOINT RightFoot
			{
				OFFSET -0.000043 0.000012 -39.900895
				CHANNELS 3 Zrotation Yrotation Xrotation
				JOINT RightToeBase
				{
					OFFSET -0.831579 -13.706737 -6.659907
					CHANNELS 3 Zrotation Yrotation Xrotation
					JOINT RightToeBaseEnd
					{
						OFFSET -0.096043 -7.329810 -0.769024
						CHANNELS 3 Zrotation Yrotation Xrotation
						JOINT RightToeBaseEnd_End
						{
							OFFSET -0.000060 0.000043 -0.000009
							CHANNELS 3 Zrotation Yrotation Xrotation
							End Site
							{
								OFFSET 0.000000 0.000000 0.000000
							}
						}
					}
				}
				JOINT RightLegEnd
				{
					OFFSET -0.000034 -0.000077 -0.000025
					CHANNELS 3 Zrotation Yrotation Xrotation
					JOINT RightLegEnd_End
					{
						OFFSET 0.000013 -0.000042 -0.000037
						CHANNELS 3 Zrotation Yrotation Xrotation
						End Site
						{
							OFFSET 0.000000 0.000000 0.000000
						}
					}
				}
			}
			JOINT RightUpLegEnd
			{
				OFFSET -0.000006 0.000005 -0.000017
				CHANNELS 3 Zrotation Yrotation Xrotation
				JOINT RightUpLegEnd_End
				{
					OFFSET 0.000000 0.000046 -0.000006
					CHANNELS 3 Zrotation Yrotation Xrotation
					End Site
					{
						OFFSET 0.000000 0.000000 0.000000
					}
				}
			}
		}
	}
	JOINT LeftUpLeg
	{
		OFFSET 11.315695 0.000090 -0.000036
		CHANNELS 3 Zrotation Yrotation Xrotation
		JOINT LeftLeg
		{
			OFFSET -0.000004 0.000098 -38.200306
			CHANNELS 3 Zrotation Yrotation Xrotation
			JOINT LeftFoot
			{
				OFFSET 0.000049 -0.000031 -39.900859
				CHANNELS 3 Zrotation Yrotation Xrotation
				JOINT LeftToeBase
				{
					OFFSET 0.733943 -13.739153 -6.604058
					CHANNELS 3 Zrotation Yrotation Xrotation
					JOINT LeftToeBaseEnd
					{
						OFFSET 0.094197 -7.501874 -0.750442
						CHANNELS 3 Zrotation Yrotation Xrotation
						JOINT LeftToeBaseEnd_End
						{
							OFFSET -0.000026 -0.000002 0.000003
							CHANNELS 3 Zrotation Yrotation Xrotation
							End Site
							{
								OFFSET 0.000000 0.000000 0.000000
							}
						}
					}
				}
				JOINT LeftLegEnd
				{
					OFFSET 0.000011 0.000023 -0.000022
					CHANNELS 3 Zrotation Yrotation Xrotation
					JOINT LeftLegEnd_End
					{
						OFFSET 0.000029 0.000046 0.000009
						CHANNELS 3 Zrotation Yrotation Xrotation
						End Site
						{
							OFFSET 0.000000 0.000000 0.000000
						}
					}
				}
			}
			JOINT LeftUpLegEnd
			{
				OFFSET 0.000014 -0.000039 0.000020
				CHANNELS 3 Zrotation Yrotation Xrotation
				JOINT LeftUpLegEnd_End
				{
					OFFSET -0.000031 0.000006 0.000017
					CHANNELS 3 Zrotation Yrotation Xrotation
					End Site
					{
						OFFSET 0.000000 0.000000 0.000000
					}
				}
			}
		}
	}
}
MOTION
Frames: 3
Frame Time: 0.050000
-354.476738 546.374647 88.101444 -149.926880 -1.325580 -1.766170 0.187321 1.018986 1.118890 -0.024526 -2.011585 -0.567202 4.928527 1.647402 1.725164 1.538856 2.212829 2.340000 -3.465308 1.907864 -0.013727 -43.525658 -69.229660 17.322170 5.485649 5.985095 -28.710108 -29.818371 5.182837 -21.556686 -1.056681 -2.056092 0.551624 -5.106753 -0.000005 -0.000006 -3.546194 -0.000000 0.000001 -0.000000 -0.000001 0.000001 0.000001 0.000001 0.000000 8.083486 31.180464 4.241396 0.000001 -0.000000 0.000000 -0.000000 -0.000000 -0.000000 -0.000001 -0.000001 0.000001 -0.000001 0.000000 -0.000002 1.923674 30.691000 0.993275 -0.000002 0.000000 0.000000 0.000001 0.000001 0.000000 0.000000 0.000002 -0.000001 -0.000001 -0.000000 -0.000002 -5.963557 28.705290 -2.878170 0.000000 0.000000 0.000001 0.000000 -0.000000 0.000001 0.000002 0.000002 0.000001 -0.000001 -0.000001 0.000001 -13.399802 24.636532 -5.687885 -0.000001 0.000000 0.000001 -0.000001 -0.000000 -0.000000 -0.000002 0.000002 0.000002 0.000004 -0.000001 0.000001 0.000002 0.000004 0.000002 0.000002 -0.000002 0.000002 0.000000 -0.000001 0.000000 0.000002 -0.000001 -0.000000 -0.166554 -2.090703 0.009534 37.767223 70.222267 11.957025 -23.163321 -9.781413 -42.175808 24.458776 -21.674711 -13.653862 0.175211 0.339226 0.091024 0.842399 0.000002 -0.000000 0.585113 -0.000002 -0.000005 -0.000001 -0.000001 0.000001 0.000003 -0.000001 -0.000001 -21.528679 -39.431606 14.042950 0.000000 0.000000 0.000001 -0.000000 -0.000000 0.000001 0.000001 -0.000001 0.000001 0.000002 -0.000001 -0.000000 -11.767485 -39.576103 7.556946 0.000000 0.000000 0.000000 0.000000 0.000001 0.000000 -0.000001 -0.000001 0.000001 -0.000002 0.000002 -0.000000 0.126352 -37.807171 -0.049269 -0.000001 -0.000001 0.000000 -0.000000 -0.000000 0.000001 -0.000000 -0.000000 -0.000001 -0.000000 0.000003 -0.000001 10.387438 -32.821510 -5.605263 0.000000 0.000001 0.000000 -0.000001 0.000001 0.000000 -0.000003 0.000000 0.000001 0.000001 0.000001 0.000001 0.000001 0.000001 -0.000001 -0.000000 0.000000 0.000001 -0.000004 -0.000001 -0.000001 -0.000002 -0.000000 -0.000000 -1.346903 0.954048 9.576878 -3.249090 0.759275 0.548464 0.471924 -0.112142 -16.822638 -0.000001 0.000000 0.000000 -0.000000 0.000000 -0.000000 15.088602 2.618808 -2.266071 -0.357421 0.140407 21.543718 -7.753639 -5.775328 -14.927639 0.838257 0.707665 -1.290897 -0.000003 -0.000000 0.000001 -0.000002 -0.000001 0.000001 -0.000000 -0.000003 0.000000 0.000002 -0.000002 0.000000 -0.000000 -0.000000 -0.000000 -0.000002 -0.000001 -0.000000 -1.725392 2.744872 1.571507 0.425627 -0.066659 11.120032 6.294577 3.949377 -10.248846 -0.805638 0.011025 2.027673 -0.000007 0.000000 -0.000002 -0.000004 0.000001 -0.000002 0.000001 0.000006 -0.000003 -0.000001 0.000002 -0.000004 0.000000 -0.000001 -0.000001 -0.000002 -0.000001 -0.000000 
-354.351841 546.914115 88.280780 -152.189194 -1.588150 -1.182191 0.220015 1.256474 0.790115 -0.027387 -1.813704 -0.852815 4.617584 1.711853 1.730361 1.326927 2.171977 2.435803 -3.923365 2.121856 -0.013485 -44.941769 -70.153336 22.604364 7.772055 6.463698 -26.989857 -28.116377 5.665392 -19.941917 -1.193147 -2.324200 0.623515 -5.772379 -0.000005 -0.000006 -4.008530 -0.000002 0.000003 -0.000000 -0.000001 0.000001 -0.000000 0.000001 0.000000 8.749894 29.860186 4.366927 0.000001 -0.000000 0.000000 -0.000000 -0.000000 -0.000000 -0.000002 -0.000001 0.000001 -0.000001 0.000000 -0.000001 2.488667 29.418423 1.208213 -0.000002 -0.000000 0.000001 0.000001 0.000001 -0.000000 -0.000000 0.000002 -0.000001 0.000000 0.000001 -0.000001 -5.406681 27.508251 -2.518276 0.000000 0.000000 0.000000 0.000000 0.000000 0.000000 0.000002 0.000002 0.000001 -0.000002 -0.000002 0.000001 -12.785622 23.615471 -5.209541 -0.000001 -0.000000 0.000001 -0.000001 -0.000000 -0.000000 -0.000001 0.000002 0.000002 0.000004 -0.000001 0.000001 0.000001 0.000002 0.000003 0.000002 -0.000002 0.000001 -0.000000 -0.000001 0.000000 0.000001 -0.000000 -0.000000 0.122063 -2.868836 0.003070 44.664375 69.435272 20.556305 -24.822271 -9.598514 -41.319763 24.035872 -22.180704 -12.535355 0.190790 0.369386 0.099120 0.917395 0.000001 -0.000000 0.637120 -0.000002 -0.000007 -0.000002 -0.000002 0.000001 0.000004 -0.000001 -0.000001 -21.473038 -38.940708 13.856069 -0.000000 -0.000000 0.000001 -0.000000 -0.000000 0.000001 0.000001 -0.000001 0.000001 0.000001 -0.000001 -0.000000 -11.974533 -38.991829 7.582409 0.000000 0.000000 0.000000 0.000000 0.000001 0.000000 -0.000001 -0.000002 0.000002 -0.000003 0.000002 -0.000001 -0.507977 -37.176792 0.302695 -0.000001 -0.000001 0.000001 -0.000000 -0.000000 0.000001 -0.000001 0.000001 -0.000000 0.000000 0.000002 -0.000000 9.294892 -32.295414 -4.972519 -0.000000 0.000001 0.000000 -0.000001 0.000001 0.000001 -0.000003 0.000001 0.000001 0.000001 0.000001 0.000001 0.000001 0.000000 -0.000000 -0.000000 0.000000 0.000001 -0.000004 -0.000001 -0.000001 -0.000002 -0.000000 -0.000001 -0.428854 1.009984 9.754652 -2.220494 0.551022 0.580643 0.519367 0.064684 -16.550117 -0.000001 0.000000 -0.000000 -0.000000 0.000000 -0.000000 16.300383 2.778363 -2.371023 -0.379951 0.147429 20.803749 -6.514886 -5.336508 -14.451224 0.824490 0.591852 -1.217582 -0.000003 -0.000000 0.000001 -0.000002 -0.000000 0.000001 -0.000000 -0.000002 0.000000 0.000002 -0.000002 0.000000 -0.000000 -0.000000 -0.000001 -0.000002 -0.000000 -0.000000 0.252555 2.673148 2.783601 0.512942 -0.078556 8.806448 6.497392 4.235989 -9.430456 -0.869937 -0.074342 1.737924 -0.000006 0.000000 -0.000002 -0.000005 0.000001 -0.000002 0.000002 0.000006 -0.000003 -0.000001 0.000001 -0.000004 0.000001 -0.000001 -0.000001 -0.000002 -0.000002 -0.000000 
-354.151838 547.315310 88.416123 -154.561890 -1.585863 -0.828064 0.216351 1.420141 0.675816 -0.096761 -1.758915 -0.973154 4.167998 1.570735 1.643507 1.102114 1.914073 2.319191 -3.726444 1.814128 -0.014102 -38.913605 -71.478302 19.936068 9.938066 6.631809 -24.493790 -27.330791 7.761796 -19.473106 -1.281547 -2.497072 0.669906 -6.201600 -0.000004 -0.000006 -4.306673 -0.000006 0.000004 -0.000001 0.000000 0.000000 -0.000000 0.000001 -0.000000 9.418947 28.799519 4.599396 0.000001 0.000000 -0.000000 -0.000000 -0.000000 0.000000 -0.000002 -0.000001 0.000001 -0.000001 0.000000 -0.000000 3.063105 28.381193 1.481843 -0.000002 0.000000 0.000000 0.000001 0.000001 -0.000000 -0.000001 0.000003 -0.000002 0.000000 0.000002 -0.000002 -4.842111 26.486183 -2.139922 0.000000 0.000000 0.000001 0.000000 0.000001 0.000001 0.000002 0.000002 0.000001 -0.000002 -0.000002 0.000000 -12.182999 22.697401 -4.736486 -0.000000 0.000000 0.000001 -0.000001 -0.000001 0.000000 -0.000000 0.000001 0.000002 0.000005 -0.000001 0.000001 0.000001 0.000002 0.000003 0.000002 -0.000002 0.000001 -0.000001 -0.000000 -0.000000 0.000000 0.000000 -0.000000 0.091891 -3.083608 -0.000308 47.492485 68.812401 25.693924 -25.311291 -10.167687 -40.681721 23.301188 -23.466276 -10.491498 0.152186 0.293929 0.078879 0.730610 0.000001 0.000003 0.507409 -0.000004 -0.000008 -0.000001 -0.000002 0.000001 0.000004 -0.000001 -0.000002 -21.504494 -38.323280 13.708521 -0.000000 -0.000000 0.000001 -0.000000 -0.000000 0.000001 0.000002 -0.000001 0.000001 0.000001 -0.000001 -0.000000 -12.163255 -38.182716 7.581181 0.000000 0.000000 0.000000 0.000001 0.000000 0.000000 -0.000001 -0.000002 0.000002 -0.000002 0.000002 -0.000001 -1.005932 -36.127899 0.600841 -0.000001 -0.000001 0.000001 -0.000001 -0.000000 0.000001 -0.000000 0.000001 0.000000 0.000001 0.000001 -0.000000 8.479329 -31.221319 -4.380964 -0.000000 0.000000 0.000000 -0.000001 0.000001 0.000000 -0.000003 0.000001 0.000001 0.000002 0.000001 0.000000 0.000000 -0.000000 -0.000000 -0.000000 0.000000 0.000000 -0.000003 -0.000001 -0.000001 -0.000002 -0.000000 -0.000000 0.730238 1.608524 10.341311 -1.096434 0.387403 0.767967 0.569032 0.328322 -16.329668 -0.000001 -0.000000 0.000000 -0.000000 0.000000 -0.000000 18.002745 2.716377 -2.649097 -0.395807 0.152601 20.628038 -5.074901 -4.890555 -13.991641 0.804357 0.472988 -1.216411 -0.000003 0.000000 0.000002 -0.000002 0.000000 0.000001 -0.000000 -0.000002 0.000000 0.000002 -0.000001 0.000002 -0.000000 -0.000000 -0.000001 -0.000002 -0.000000 0.000000 2.163849 2.371770 3.651946 0.582180 -0.091135 7.465013 6.881839 4.552292 -9.073687 -0.929888 -0.140425 1.615442 -0.000005 0.000000 -0.000002 -0.000006 0.000001 -0.000003 0.000002 0.000006 -0.000003 -0.000001 0.000001 -0.000003 0.000002 -0.000001 -0.000001 -0.000001 -0.000002 -0.000000 
